<svg width="1441px" height="170px" viewBox="0 0 1441 170" fill="none" xmlns="http://www.w3.org/2000/svg">
<path fill-rule="evenodd" clip-rule="evenodd" d="M0 0L60.0417 14.1667C120.083 28.3333 240.167 56.6667 360.25 77.9167C480.333 99.1667 600.417 113.333 720.5 99.1667C840.583 85 960.667 42.5 1080.75 42.5C1200.83 42.5 1320.92 85 1380.96 106.25L1441 127.5V170H1380.96C1320.92 170 1200.83 170 1080.75 170C960.667 170 840.583 170 720.5 170C600.417 170 480.333 170 360.25 170C240.167 170 120.083 170 60.0417 170H0V0Z" fill="#D6F3D2"/>
</svg>
