<svg width="36" height="32" viewBox="0 0 36 32" fill="none" xmlns="http://www.w3.org/2000/svg">
    <path d="M32.4744 27.5C32.3756 27.6521 32.2335 27.7783 32.0625 27.8661C31.8914 27.9538 31.6973 28 31.4998 28H4.49982C4.30244 27.9998 4.10859 27.9535 3.93773 27.8656C3.76687 27.7778 3.62501 27.6515 3.52641 27.4996C3.42781 27.3476 3.37593 27.1752 3.37598 26.9997C3.37603 26.8243 3.42801 26.6519 3.5267 26.5C5.66842 23.2087 8.96888 20.8487 12.8206 19.73C10.9154 18.7218 9.43512 17.1856 8.60718 15.3572C7.77924 13.5289 7.64938 11.5095 8.23755 9.60919C8.82572 7.70889 10.0994 6.03274 11.863 4.83815C13.6266 3.64357 15.7825 2.9966 17.9998 2.9966C20.2171 2.9966 22.3731 3.64357 24.1367 4.83815C25.9002 6.03274 27.1739 7.70889 27.7621 9.60919C28.3503 11.5095 28.2204 13.5289 27.3925 15.3572C26.5645 17.1856 25.0843 18.7218 23.179 19.73C27.0308 20.8487 30.3312 23.2087 32.4729 26.5C32.5719 26.6519 32.6241 26.8243 32.6244 26.9998C32.6246 27.1754 32.5729 27.3479 32.4744 27.5Z" fill="#F8F8F8"/>
</svg>