<svg width="29" height="32" viewBox="0 0 29 24" fill="none" xmlns="http://www.w3.org/2000/svg">
<path d="M23.2 19.2C21.5905 19.2 20.3 20.268 20.3 21.6C20.3 22.2365 20.6055 22.847 21.1494 23.2971C21.6932 23.7471 22.4309 24 23.2 24C23.9691 24 24.7068 23.7471 25.2506 23.2971C25.7945 22.847 26.1 22.2365 26.1 21.6C26.1 20.9635 25.7945 20.353 25.2506 19.9029C24.7068 19.4529 23.9691 19.2 23.2 19.2ZM0 0V2.4H2.9L8.12 11.508L6.148 14.448C5.9305 14.784 5.8 15.18 5.8 15.6C5.8 16.2365 6.10554 16.847 6.64939 17.2971C7.19325 17.7471 7.93087 18 8.7 18H26.1V15.6H9.309C9.21286 15.6 9.12066 15.5684 9.05267 15.5121C8.98469 15.4559 8.9465 15.3796 8.9465 15.3C8.9465 15.24 8.961 15.192 8.99 15.156L10.295 13.2H21.0975C22.185 13.2 23.142 12.696 23.635 11.964L28.826 4.2C28.9275 4.008 29 3.804 29 3.6C29 3.28174 28.8472 2.97652 28.5753 2.75147C28.3034 2.52643 27.9346 2.4 27.55 2.4H6.1045L4.7415 0M8.7 19.2C7.0905 19.2 5.8 20.268 5.8 21.6C5.8 22.2365 6.10554 22.847 6.64939 23.2971C7.19325 23.7471 7.93087 24 8.7 24C9.46913 24 10.2068 23.7471 10.7506 23.2971C11.2945 22.847 11.6 22.2365 11.6 21.6C11.6 20.9635 11.2945 20.353 10.7506 19.9029C10.2068 19.4529 9.46913 19.2 8.7 19.2Z" fill="white"/>
</svg>
