<svg width="31" height="28" viewBox="0 0 31 28" fill="none" xmlns="http://www.w3.org/2000/svg">
<path fill-rule="evenodd" clip-rule="evenodd" d="M17.05 22.4C17.8722 22.4 18.6607 22.695 19.242 23.2201C19.8234 23.7452 20.15 24.4574 20.15 25.2C20.15 25.9426 19.8234 26.6548 19.242 27.1799C18.6607 27.705 17.8722 28 17.05 28C16.2278 28 15.4393 27.705 14.858 27.1799C14.2766 26.6548 13.95 25.9426 13.95 25.2C13.95 24.4574 14.2766 23.7452 14.858 23.2201C15.4393 22.695 16.2278 22.4 17.05 22.4ZM7.34855 18.2C8.37626 18.2 9.36189 18.5687 10.0886 19.2251C10.8153 19.8815 11.2235 20.7717 11.2235 21.7C11.2235 22.6283 10.8153 23.5185 10.0886 24.1749C9.36189 24.8313 8.37626 25.2 7.34855 25.2C6.32084 25.2 5.33521 24.8313 4.60851 24.1749C3.88181 23.5185 3.47355 22.6283 3.47355 21.7C3.47355 20.7717 3.88181 19.8815 4.60851 19.2251C5.33521 18.5687 6.32084 18.2 7.34855 18.2ZM25.2944 18.9C26.1166 18.9 26.9051 19.195 27.4865 19.7201C28.0678 20.2452 28.3945 20.9574 28.3945 21.7C28.3945 22.4426 28.0678 23.1548 27.4865 23.6799C26.9051 24.205 26.1166 24.5 25.2944 24.5C24.4723 24.5 23.6838 24.205 23.1024 23.6799C22.5211 23.1548 22.1945 22.4426 22.1945 21.7C22.1945 20.9574 22.5211 20.2452 23.1024 19.7201C23.6838 19.195 24.4723 18.9 25.2944 18.9ZM28.675 13.0466C29.2916 13.0466 29.883 13.2678 30.319 13.6617C30.755 14.0555 31 14.5896 31 15.1466C31 15.7036 30.755 16.2377 30.319 16.6315C29.883 17.0254 29.2916 17.2466 28.675 17.2466C28.0584 17.2466 27.467 17.0254 27.031 16.6315C26.595 16.2377 26.35 15.7036 26.35 15.1466C26.35 14.5896 26.595 14.0555 27.031 13.6617C27.467 13.2678 28.0584 13.0466 28.675 13.0466ZM3.875 8.4C4.90271 8.4 5.88834 8.76875 6.61504 9.42513C7.34174 10.0815 7.75 10.9717 7.75 11.9C7.75 12.8283 7.34174 13.7185 6.61504 14.3749C5.88834 15.0312 4.90271 15.4 3.875 15.4C2.84729 15.4 1.86166 15.0312 1.13496 14.3749C0.408258 13.7185 0 12.8283 0 11.9C0 10.9717 0.408258 10.0815 1.13496 9.42513C1.86166 8.76875 2.84729 8.4 3.875 8.4ZM27.5683 7.2898C27.9794 7.2898 28.3736 7.4373 28.6643 7.69985C28.955 7.9624 29.1183 8.3185 29.1183 8.6898C29.1183 9.0611 28.955 9.4172 28.6643 9.67975C28.3736 9.9423 27.9794 10.0898 27.5683 10.0898C27.1572 10.0898 26.763 9.9423 26.4723 9.67975C26.1816 9.4172 26.0183 9.0611 26.0183 8.6898C26.0183 8.3185 26.1816 7.9624 26.4723 7.69985C26.763 7.4373 27.1572 7.2898 27.5683 7.2898ZM12.4 0C13.6333 0 14.816 0.442499 15.688 1.23015C16.5601 2.0178 17.05 3.08609 17.05 4.2C17.05 5.31391 16.5601 6.38219 15.688 7.16985C14.816 7.9575 13.6333 8.4 12.4 8.4C11.1667 8.4 9.984 7.9575 9.11195 7.16985C8.23991 6.38219 7.75 5.31391 7.75 4.2C7.75 3.08609 8.23991 2.0178 9.11195 1.23015C9.984 0.442499 11.1667 0 12.4 0ZM24.025 4.2C24.2305 4.2 24.4277 4.27375 24.573 4.40503C24.7183 4.5363 24.8 4.71435 24.8 4.9C24.8 5.08565 24.7183 5.2637 24.573 5.39497C24.4277 5.52625 24.2305 5.6 24.025 5.6C23.8195 5.6 23.6223 5.52625 23.477 5.39497C23.3317 5.2637 23.25 5.08565 23.25 4.9C23.25 4.71435 23.3317 4.5363 23.477 4.40503C23.6223 4.27375 23.8195 4.2 24.025 4.2Z" fill="#F8F8F8"/>
</svg>
