<svg width="35" height="36" viewBox="0 0 35 36" fill="none" xmlns="http://www.w3.org/2000/svg">
<path d="M31.1111 0C32.1425 0 33.1317 0.421427 33.861 1.17157C34.5903 1.92172 35 2.93913 35 4V32C35 33.0609 34.5903 34.0783 33.861 34.8284C33.1317 35.5786 32.1425 36 31.1111 36H3.88889C2.85749 36 1.86834 35.5786 1.13903 34.8284C0.409721 34.0783 0 33.0609 0 32V4C0 2.93913 0.409721 1.92172 1.13903 1.17157C1.86834 0.421427 2.85749 0 3.88889 0H31.1111ZM30.1389 31V20.4C30.1389 18.6708 29.471 17.0124 28.2823 15.7897C27.0935 14.5669 25.4812 13.88 23.8 13.88C22.1472 13.88 20.2222 14.92 19.2889 16.48V14.26H13.8639V31H19.2889V21.14C19.2889 19.6 20.4944 18.34 21.9917 18.34C22.7136 18.34 23.4061 18.635 23.9166 19.1601C24.4271 19.6852 24.7139 20.3974 24.7139 21.14V31H30.1389ZM7.54444 11.12C8.41082 11.12 9.24171 10.766 9.85433 10.1359C10.4669 9.50576 10.8111 8.65113 10.8111 7.76C10.8111 5.9 9.35278 4.38 7.54444 4.38C6.67291 4.38 5.83708 4.73611 5.22081 5.36998C4.60455 6.00385 4.25833 6.86357 4.25833 7.76C4.25833 9.62 5.73611 11.12 7.54444 11.12ZM10.2472 31V14.26H4.86111V31H10.2472Z" fill="#454942"/>
</svg>
