<svg width="1441" height="547" viewBox="0 0 1441 547" fill="none" xmlns="http://www.w3.org/2000/svg">
<path fill-rule="evenodd" clip-rule="evenodd" d="M0 0L60.0417 45.5833C120.083 91.1667 240.167 182.333 360.25 250.708C480.333 319.083 600.417 364.667 720.5 319.083C840.583 273.5 960.667 136.75 1080.75 136.75C1200.83 136.75 1320.92 273.5 1380.96 341.875L1441 410.25V547H1380.96C1320.92 547 1200.83 547 1080.75 547C960.667 547 840.583 547 720.5 547C600.417 547 480.333 547 360.25 547C240.167 547 120.083 547 60.0417 547H0V0Z" fill="#EBF8EA"/>
</svg>
