<svg width="21" height="17" viewBox="0 0 21 17" fill="none" xmlns="http://www.w3.org/2000/svg">
<path d="M19.989 11.429L15.0424 9.63467L15.0288 9.62957C14.772 9.54066 14.4918 9.50497 14.2137 9.52575C13.9356 9.54653 13.6683 9.62311 13.4359 9.74857C13.4085 9.7632 13.3823 9.77909 13.3572 9.79617L10.8014 11.5599C9.18233 10.9233 7.51071 9.58027 6.72426 8.28656L8.90617 6.18619C8.92717 6.16494 8.94712 6.14369 8.96602 6.12074C9.11767 5.93314 9.20968 5.71811 9.23387 5.49477C9.25805 5.27143 9.21365 5.04672 9.10462 4.84062V4.83042L6.88176 0.819236C6.73763 0.550008 6.48982 0.325734 6.1753 0.179892C5.86078 0.0340509 5.49643 -0.0255355 5.13665 0.0100281C3.71385 0.16159 2.40787 0.727238 1.4626 1.60132C0.517335 2.47541 -0.002563 3.59816 9.50114e-06 4.75987C9.50114e-06 11.5089 6.78306 17 15.1201 17C16.5552 17.0021 17.9421 16.5812 19.0218 15.816C20.1016 15.0508 20.8003 13.9935 20.9876 12.8418C21.0316 12.5506 20.9581 12.2557 20.7782 12.0011C20.5982 11.7465 20.3214 11.5458 19.989 11.429ZM15.1201 15.64C11.5568 15.6368 8.1405 14.4895 5.62083 12.4498C3.10117 10.4101 1.68391 7.64449 1.68002 4.75987C1.67607 3.92983 2.04548 3.127 2.71925 2.50132C3.39303 1.87564 4.3251 1.46989 5.3414 1.35984C5.34098 1.36323 5.34098 1.36665 5.3414 1.37004L7.54641 5.36508L5.37605 7.468C5.35402 7.48852 5.33401 7.5104 5.3162 7.53345C5.15819 7.72973 5.06549 7.95573 5.0471 8.18954C5.0287 8.42335 5.08523 8.65704 5.2112 8.86796C6.1625 10.443 8.12287 12.0181 10.0895 12.7874C10.352 12.8884 10.6423 12.9326 10.9322 12.9156C11.2221 12.8986 11.5015 12.821 11.7433 12.6904C11.7703 12.6757 11.7962 12.6599 11.821 12.6428L14.3736 10.8799L19.3086 12.6692H19.3201C19.1859 13.4931 18.6854 14.2491 17.9124 14.7959C17.1393 15.3427 16.1467 15.6428 15.1201 15.64Z" fill="#4D4848"/>
</svg>
