<svg width="1441" height="426" viewBox="0 0 1441 426" fill="none" xmlns="http://www.w3.org/2000/svg">
<path fill-rule="evenodd" clip-rule="evenodd" d="M0 0L60.0417 35.5C120.083 71 240.167 142 360.25 195.25C480.333 248.5 600.417 284 720.5 248.5C840.583 213 960.667 106.5 1080.75 106.5C1200.83 106.5 1320.92 213 1380.96 266.25L1441 319.5V426H1380.96C1320.92 426 1200.83 426 1080.75 426C960.667 426 840.583 426 720.5 426C600.417 426 480.333 426 360.25 426C240.167 426 120.083 426 60.0417 426H0V0Z" fill="#ECF9EB"/>
</svg>
