<svg width="13" height="12" viewBox="0 0 13 12" fill="none" xmlns="http://www.w3.org/2000/svg">
<path d="M3.99186 11.1652L10.492 5.16502L7.40456 2.31507L0.904411 8.31521C0.814924 8.39791 0.751357 8.50144 0.720451 8.61479L0 12L3.66661 11.335C3.78971 11.3066 3.90233 11.2478 3.99186 11.1652ZM12.5904 3.22803C12.8527 2.98588 13 2.65748 13 2.31507C13 1.97266 12.8527 1.64426 12.5904 1.4021L11.4811 0.378082C11.2187 0.135996 10.863 0 10.492 0C10.1211 0 9.7653 0.135996 9.50296 0.378082L8.39361 1.4021L11.4811 4.25205L12.5904 3.22803Z" fill="#454942"/>
</svg>
