<svg width="21" height="14" viewBox="0 0 21 14" fill="none" xmlns="http://www.w3.org/2000/svg">
<path d="M19.6875 0H1.3125C0.964403 0 0.630564 0.13409 0.384422 0.372773C0.138281 0.611456 0 0.935179 0 1.27273L0 12.7273C0 13.0648 0.138281 13.3885 0.384422 13.6272C0.630564 13.8659 0.964403 14 1.3125 14H19.6875C20.0356 14 20.3694 13.8659 20.6156 13.6272C20.8617 13.3885 21 13.0648 21 12.7273V1.27273C21 0.935179 20.8617 0.611456 20.6156 0.372773C20.3694 0.13409 20.0356 0 19.6875 0ZM17.9812 1.59091L11.0513 7.71273C10.901 7.84689 10.7042 7.92136 10.5 7.92136C10.2958 7.92136 10.099 7.84689 9.94875 7.71273L3.01875 1.59091H17.9812ZM1.64062 12.4091V2.52L8.84625 8.88364C9.29696 9.28613 9.88728 9.50955 10.5 9.50955C11.1127 9.50955 11.703 9.28613 12.1538 8.88364L19.3594 2.52V12.4091H1.64062Z" fill="#454942"/>
</svg>
