<svg width="10" height="12" viewBox="0 0 10 12" fill="none" xmlns="http://www.w3.org/2000/svg">
<path d="M5 2.57145C4.5505 2.57145 4.11109 2.69713 3.73734 2.93259C3.36359 3.16806 3.07229 3.50273 2.90027 3.89429C2.72826 4.28585 2.68325 4.71671 2.77094 5.13239C2.85864 5.54807 3.07509 5.92989 3.39294 6.22958C3.71079 6.52926 4.11575 6.73335 4.55661 6.81604C4.99748 6.89872 5.45445 6.85628 5.86974 6.69409C6.28502 6.53191 6.63997 6.25725 6.8897 5.90485C7.13943 5.55246 7.27273 5.13815 7.27273 4.71433C7.27273 4.14601 7.03328 3.60096 6.60706 3.19909C6.18084 2.79722 5.60277 2.57145 5 2.57145ZM5 6.00006C4.7303 6.00006 4.46665 5.92465 4.2424 5.78338C4.01816 5.6421 3.84337 5.4413 3.74016 5.20636C3.63695 4.97142 3.60995 4.71291 3.66257 4.4635C3.71518 4.21409 3.84506 3.985 4.03576 3.80519C4.22647 3.62537 4.46945 3.50292 4.73397 3.45331C4.99849 3.4037 5.27267 3.42916 5.52184 3.52648C5.77101 3.62379 5.98398 3.78858 6.13382 4.00002C6.28366 4.21146 6.36364 4.46004 6.36364 4.71433C6.36364 5.05533 6.21997 5.38236 5.96424 5.62348C5.70851 5.8646 5.36166 6.00006 5 6.00006ZM5 0C3.67438 0.00141791 2.40348 0.498561 1.46613 1.38236C0.528771 2.26616 0.00150383 3.46445 0 4.71433C0 6.39649 0.824432 8.17937 2.38636 9.87064C3.08819 10.6349 3.8781 11.323 4.74148 11.9224C4.8179 11.9729 4.90896 12 5.00227 12C5.09559 12 5.18664 11.9729 5.26307 11.9224C6.12486 11.3228 6.91323 10.6346 7.61364 9.87064C9.1733 8.17937 10 6.39649 10 4.71433C9.9985 3.46445 9.47123 2.26616 8.53387 1.38236C7.59652 0.498561 6.32562 0.00141791 5 0ZM5 11.0358C4.0608 10.3394 0.909091 7.78133 0.909091 4.71433C0.909091 3.69134 1.3401 2.71026 2.10729 1.98689C2.87448 1.26353 3.91502 0.857151 5 0.857151C6.08498 0.857151 7.12551 1.26353 7.89271 1.98689C8.6599 2.71026 9.09091 3.69134 9.09091 4.71433C9.09091 7.78026 5.9392 10.3394 5 11.0358Z" fill="#4D4848"/>
</svg>
