<svg width="21" height="21" viewBox="0 0 21 21" fill="none" xmlns="http://www.w3.org/2000/svg">
<path d="M13.7849 5.14345e-07C14.8279 0.000807807 15.8583 0.227481 16.8052 0.664427C17.7522 1.10137 18.5932 1.73822 19.2705 2.53115C19.9477 3.32408 20.4451 4.25428 20.7285 5.25774C21.0118 6.26121 21.0743 7.31413 20.9117 8.34406C20.7491 9.37399 20.3653 10.3565 19.7866 11.2239C19.208 12.0914 18.4482 12.8233 17.5596 13.3691C16.671 13.915 15.6747 14.262 14.6391 14.3861C13.6036 14.5103 12.5535 14.4087 11.561 14.0884L10.1291 15.5199C9.98709 15.6623 9.81835 15.7753 9.63255 15.8523C9.44675 15.9294 9.24755 15.9689 9.04641 15.9688H8.0959C8.03787 15.9688 7.98222 15.9918 7.94118 16.0328C7.90015 16.0738 7.8771 16.1295 7.8771 16.1875V17.4545C7.87713 17.6576 7.79655 17.8524 7.65304 17.9961L7.46574 18.1825C7.40329 18.245 7.32885 18.2943 7.24688 18.3274C7.16492 18.3605 7.07711 18.3767 6.98873 18.375H4.59497C4.53694 18.375 4.48129 18.398 4.44025 18.4391C4.39922 18.4801 4.37616 18.5357 4.37616 18.5938V19.4688C4.37616 19.8749 4.21479 20.2643 3.92755 20.5515C3.64031 20.8387 3.25073 21 2.84451 21H1.53166C1.12544 21 0.735854 20.8387 0.448612 20.5515C0.161371 20.2643 0 19.8749 0 19.4688L0 16.9872C0 16.5813 0.161918 16.1927 0.448994 15.9057L6.91346 9.44125C6.56262 8.35796 6.47312 7.20706 6.65227 6.08257C6.83141 4.95809 7.27413 3.89193 7.94424 2.97121C8.61436 2.05048 9.49285 1.30132 10.508 0.784931C11.5231 0.26854 12.646 -0.000429309 13.7849 5.14345e-07ZM7.8771 7.21875C7.87618 7.95585 8.01364 8.68658 8.28233 9.373C8.32891 9.49185 8.33982 9.62171 8.3137 9.74666C8.28758 9.87162 8.22558 9.98624 8.13529 10.0765L1.37674 16.8324C1.35644 16.8527 1.34034 16.8769 1.32938 16.9035C1.31841 16.93 1.3128 16.9585 1.31285 16.9872V19.4688C1.31285 19.5895 1.41088 19.6875 1.53166 19.6875H2.84451C2.90254 19.6875 2.95819 19.6645 2.99923 19.6234C3.04026 19.5824 3.06332 19.5268 3.06332 19.4688V18.5938C3.06332 17.7485 3.7495 17.0625 4.59497 17.0625H6.56425V16.1875C6.56425 15.3422 7.25043 14.6562 8.0959 14.6562H9.04641C9.07516 14.6563 9.10364 14.6507 9.13022 14.6397C9.15681 14.6288 9.18096 14.6127 9.20132 14.5924L10.9264 12.8669C11.0167 12.7766 11.1313 12.7146 11.2563 12.6885C11.3813 12.6624 11.5112 12.6733 11.6301 12.7199C12.8056 13.1802 14.0977 13.252 15.317 12.9247C16.5363 12.5974 17.6186 11.8882 18.4053 10.9011C19.1921 9.91401 19.6418 8.70091 19.6887 7.43964C19.7355 6.17836 19.377 4.93526 18.6656 3.89256C17.9543 2.84985 16.9275 2.06239 15.7358 1.64559C14.5442 1.2288 13.2503 1.2046 12.0439 1.57655C10.8375 1.9485 9.782 2.69702 9.03213 3.7124C8.28226 4.72778 7.87747 5.95661 7.8771 7.21875Z" fill="#4D4848"/>
</svg>
