<svg width="35" height="36" viewBox="0 0 35 36" fill="none" xmlns="http://www.w3.org/2000/svg">
<path d="M19.299 0.00221464C20.576 -0.00282559 21.853 0.0103754 23.1296 0.0418134L23.4691 0.0544129C23.861 0.0688125 24.2478 0.0868118 24.715 0.108411C26.5769 0.198408 27.8473 0.500798 28.962 0.945383C30.117 1.40257 31.0899 2.02175 32.0629 3.02251C32.9525 3.92177 33.641 5.00955 34.0805 6.2102C34.5127 7.35676 34.8067 8.66532 34.8942 10.5805C34.9152 11.0592 34.9327 11.4588 34.9467 11.862L34.9572 12.2112C34.9883 13.5237 35.0017 14.8366 34.9975 16.1495L34.9992 17.4922V19.8501C35.0035 21.1636 34.9901 22.4771 34.959 23.7902L34.9485 24.1394C34.9345 24.5426 34.917 24.9404 34.896 25.4209C34.8085 27.3361 34.511 28.6428 34.0805 29.7894C33.6424 30.9913 32.9537 32.08 32.0629 32.9789C31.1878 33.8938 30.1298 34.602 28.962 35.0542C27.8473 35.4988 26.5769 35.8012 24.715 35.8912C24.2478 35.9128 23.861 35.9308 23.4691 35.9452L23.1296 35.956C21.853 35.988 20.576 36.0018 19.299 35.9974L17.9936 35.9992H15.703C14.426 36.0036 13.149 35.9898 11.8724 35.9578L11.5329 35.947C11.1175 35.9315 10.7022 35.9135 10.287 35.893C8.42508 35.803 7.15464 35.497 6.0382 35.0542C4.87046 34.6031 3.81273 33.8947 2.93911 32.9789C2.04848 32.0794 1.35933 30.991 0.919713 29.7894C0.487485 28.6428 0.1935 27.3361 0.106004 25.4209C0.0865153 24.9939 0.0690161 24.5667 0.053507 24.1394L0.0447576 23.7902C0.0124956 22.4771 -0.0020886 21.1636 0.0010097 19.8501V16.1495C-0.00387424 14.8366 0.0089598 13.5237 0.0395079 12.2112L0.0517572 11.862C0.0657565 11.4588 0.0832555 11.0592 0.104254 10.5805C0.19175 8.66352 0.485735 7.35856 0.917962 6.2102C1.35784 5.00896 2.04834 3.92148 2.94086 3.02431C3.81388 2.1077 4.87094 1.3982 6.0382 0.945383C7.15464 0.500798 8.42333 0.198408 10.287 0.108411L11.5329 0.0544129L11.8724 0.0454135C13.1484 0.0122457 14.4248 -0.00275544 15.7012 0.000414828L19.299 0.00221464ZM17.5001 9.00191C16.3408 8.98504 15.1898 9.20534 14.114 9.65001C13.0382 10.0947 12.059 10.7548 11.2334 11.5921C10.4078 12.4294 9.75221 13.4271 9.30474 14.5273C8.85726 15.6275 8.62683 16.8081 8.62683 18.0007C8.62683 19.1933 8.85726 20.3739 9.30474 21.4741C9.75221 22.5743 10.4078 23.572 11.2334 24.4093C12.059 25.2466 13.0382 25.9067 14.114 26.3514C15.1898 26.7961 16.3408 27.0164 17.5001 26.9995C19.8206 26.9995 22.0461 26.0513 23.687 24.3635C25.3278 22.6758 26.2497 20.3867 26.2497 17.9998C26.2497 15.6129 25.3278 13.3238 23.687 11.6361C22.0461 9.94829 19.8206 9.00191 17.5001 9.00191ZM17.5001 12.6018C18.1975 12.5886 18.8904 12.7184 19.5384 12.9837C20.1864 13.2491 20.7765 13.6446 21.2743 14.1471C21.772 14.6497 22.1674 15.2492 22.4374 15.9107C22.7073 16.5722 22.8464 17.2824 22.8466 17.9998C22.8467 18.7172 22.7078 19.4274 22.4381 20.089C22.1683 20.7506 21.7731 21.3503 21.2755 21.853C20.7779 22.3557 20.188 22.7514 19.54 23.017C18.8921 23.2825 18.1992 23.4126 17.5019 23.3996C16.1095 23.3996 14.7743 22.8307 13.7897 21.818C12.8052 20.8054 12.2521 19.4319 12.2521 17.9998C12.2521 16.5677 12.8052 15.1942 13.7897 14.1816C14.7743 13.1689 16.1095 12.6 17.5019 12.6L17.5001 12.6018ZM26.6871 6.302C26.1226 6.32524 25.5887 6.57226 25.1973 6.99132C24.8058 7.41039 24.5872 7.96899 24.5872 8.55012C24.5872 9.13126 24.8058 9.68986 25.1973 10.1089C25.5887 10.528 26.1226 10.775 26.6871 10.7982C27.2673 10.7982 27.8236 10.5612 28.2339 10.1393C28.6441 9.71732 28.8745 9.14504 28.8745 8.54832C28.8745 7.95161 28.6441 7.37933 28.2339 6.95739C27.8236 6.53545 27.2673 6.2984 26.6871 6.2984V6.302Z" fill="#454942"/>
</svg>
