<svg width="1441" height="169" viewBox="0 0 1441 169" fill="none" xmlns="http://www.w3.org/2000/svg">
<path fill-rule="evenodd" clip-rule="evenodd" d="M0 0L60.0417 14.0833C120.083 28.1667 240.167 56.3333 360.25 77.4583C480.333 98.5833 600.417 112.667 720.5 98.5833C840.583 84.5 960.667 42.25 1080.75 42.25C1200.83 42.25 1320.92 84.5 1380.96 105.625L1441 126.75V169H1380.96C1320.92 169 1200.83 169 1080.75 169C960.667 169 840.583 169 720.5 169C600.417 169 480.333 169 360.25 169C240.167 169 120.083 169 60.0417 169H0V0Z" fill="#8AD684"/>
</svg>
