<svg width="1441" height="137" viewBox="0 0 1441 137" fill="none" xmlns="http://www.w3.org/2000/svg">
<path fill-rule="evenodd" clip-rule="evenodd" d="M0 0L60.0417 11.4167C120.083 22.8333 240.167 45.6667 360.25 62.7917C480.333 79.9167 600.417 91.3333 720.5 79.9167C840.583 68.5 960.667 34.25 1080.75 34.25C1200.83 34.25 1320.92 68.5 1380.96 85.625L1441 102.75V137H1380.96C1320.92 137 1200.83 137 1080.75 137C960.667 137 840.583 137 720.5 137C600.417 137 480.333 137 360.25 137C240.167 137 120.083 137 60.0417 137H0V0Z" fill="white" fill-opacity="0.67"/>
</svg>
